<?xml version="1.0" encoding="utf-8"?>
<!-- Generator: Adobe Illustrator 22.0.0, SVG Export Plug-In . SVG Version: 6.00 Build 0)  -->
<svg version="1.1" id="Capa_1" xmlns="http://www.w3.org/2000/svg" xmlns:xlink="http://www.w3.org/1999/xlink" x="0px" y="0px"
	 viewBox="0 0 455.7 455.7" style="enable-background:new 0 0 455.7 455.7;" xml:space="preserve">
<style type="text/css">
	.st0{fill:#FFFFFF;}
</style>
<g>
	<path class="st0" d="M426.5,37.4L9.7,199.8c-13.5,5.3-12.7,24.6,1.2,28.7l105.9,31.3l39.5,125.4c4.1,13.1,20.7,17.1,30.3,7.3
		l54.8-55.9l107.4,78.9c13.1,9.7,31.9,2.5,35.2-13.5l71.2-340.2C458.7,45.1,442.3,31.2,426.5,37.4z M374.2,112.9L180.6,284.1
		c-1.9,1.7-3.2,4.1-3.4,6.6l-7.5,66.3c-0.2,2.2-3.3,2.4-3.9,0.4l-30.7-98.8c-1.4-4.5,0.4-9.4,4.5-11.9l228.6-141.8
		C373.5,101.6,378.9,108.8,374.2,112.9z"/>
</g>
</svg>
